<?xml version="1.0" encoding="UTF-8" standalone="no" ?>
<!DOCTYPE svg PUBLIC "-//W3C//DTD SVG 1.1//EN" "http://www.w3.org/Graphics/SVG/1.1/DTD/svg11.dtd">
<svg xmlns="http://www.w3.org/2000/svg" xmlns:xlink="http://www.w3.org/1999/xlink" version="1.1" width="1280" height="1024" viewBox="0 0 1280 1024" xml:space="preserve">
<desc>Created with Fabric.js 5.3.0</desc>
<defs>
</defs>
<g transform="matrix(1 0 0 1 640 512)" id="background-logo"  >
<rect style="stroke: none; stroke-width: 0; stroke-dasharray: none; stroke-linecap: butt; stroke-dashoffset: 0; stroke-linejoin: miter; stroke-miterlimit: 4; fill: rgb(255,255,255); fill-opacity: 0; fill-rule: nonzero; opacity: 1;"  paint-order="stroke"  x="-640" y="-512" rx="0" ry="0" width="1280" height="1024" />
</g>
<g transform="matrix(1.9211538461538462 0 0 1.9211538461538462 343.84103114930184 405.7185787915482)" id="logo-logo"  >
<g style=""  paint-order="stroke"   >
		<g transform="matrix(2.624703014871477 0 0 -2.624703014871477 -42.17136581024147 42.17136581024147)"  >
<path style="stroke: none; stroke-width: 1; stroke-dasharray: none; stroke-linecap: butt; stroke-dashoffset: 0; stroke-linejoin: miter; stroke-miterlimit: 4; fill: rgb(16,47,38); fill-rule: nonzero; opacity: 1;"  paint-order="stroke"  transform=" translate(-11.709999999999999, 21.5135)" d="M 0 0 L 33.224 -33.224 L 23.42 -43.027 L -9.804 -9.804 Z" stroke-linecap="round" />
</g>
		<g transform="matrix(2.624703014871477 0 0 -2.624703014871477 42.17136581024147 42.17136581024147)"  >
<path style="stroke: none; stroke-width: 1; stroke-dasharray: none; stroke-linecap: butt; stroke-dashoffset: 0; stroke-linejoin: miter; stroke-miterlimit: 4; fill: rgb(24,176,116); fill-rule: nonzero; opacity: 1;"  paint-order="stroke"  transform=" translate(11.709999999999997, 21.5135)" d="M 0 0 L 9.804 -9.804 L -23.419999999999995 -43.027 L -33.224 -33.224000000000004 z" stroke-linecap="round" />
</g>
		<g transform="matrix(2.624703014871477 0 0 -2.624703014871477 42.17162828054302 -42.1713658102415)"  >
<path style="stroke: none; stroke-width: 1; stroke-dasharray: none; stroke-linecap: butt; stroke-dashoffset: 0; stroke-linejoin: miter; stroke-miterlimit: 4; fill: rgb(6,101,77); fill-rule: nonzero; opacity: 1;"  paint-order="stroke"  transform=" translate(-11.709999999999999, 21.5135)" d="M 0 0 L 33.224 -33.224 L 23.42 -43.027 L -9.804 -9.804 Z" stroke-linecap="round" />
</g>
		<g transform="matrix(2.624703014871477 0 0 -2.624703014871477 -42.17162828054302 -42.1713658102415)"  >
<path style="stroke: none; stroke-width: 1; stroke-dasharray: none; stroke-linecap: butt; stroke-dashoffset: 0; stroke-linejoin: miter; stroke-miterlimit: 4; fill: rgb(0,135,83); fill-rule: nonzero; opacity: 1;"  paint-order="stroke"  transform=" translate(11.709999999999997, 21.5135)" d="M 0 0 L 9.804 -9.804 L -23.419999999999995 -43.027 L -33.224 -33.224000000000004 z" stroke-linecap="round" />
</g>
		<g transform="matrix(2.624703014871477 0 0 -2.624703014871477 0.0005249406029861348 72.90716305498944)"  >
<path style="stroke: none; stroke-width: 1; stroke-dasharray: none; stroke-linecap: butt; stroke-dashoffset: 0; stroke-linejoin: miter; stroke-miterlimit: 4; fill: rgb(107,107,107); fill-rule: nonzero; opacity: 1;"  paint-order="stroke"  transform=" translate(5.4455, 0.0019999999999997797)" d="M 0 0 L -5.446 -5.45 L -10.891 0 L -5.446 5.446 Z" stroke-linecap="round" />
</g>
		<g transform="matrix(2.624703014871477 0 0 -2.624703014871477 72.90690058468795 0.00026247030143622396)"  >
<path style="stroke: none; stroke-width: 1; stroke-dasharray: none; stroke-linecap: butt; stroke-dashoffset: 0; stroke-linejoin: miter; stroke-miterlimit: 4; fill: rgb(98,98,98); fill-rule: nonzero; opacity: 1;"  paint-order="stroke"  transform=" translate(5.4475, 0)" d="M 0 0 L -5.449 -5.446 L -10.895 0 L -5.449 5.446 Z" stroke-linecap="round" />
</g>
		<g transform="matrix(2.624703014871477 0 0 -2.624703014871477 -72.90637564408502 0.00026247030143622396)"  >
<path style="stroke: none; stroke-width: 1; stroke-dasharray: none; stroke-linecap: butt; stroke-dashoffset: 0; stroke-linejoin: miter; stroke-miterlimit: 4; fill: rgb(69,69,69); fill-rule: nonzero; opacity: 1;"  paint-order="stroke"  transform=" translate(5.4475, 0)" d="M 0 0 L -5.446 -5.446 L -10.895 0 L -5.446 5.446 Z" stroke-linecap="round" />
</g>
		<g transform="matrix(2.624703014871477 0 0 -2.624703014871477 0.0005249406029861348 -72.90663811438651)"  >
<path style="stroke: none; stroke-width: 1; stroke-dasharray: none; stroke-linecap: butt; stroke-dashoffset: 0; stroke-linejoin: miter; stroke-miterlimit: 4; fill: rgb(42,42,42); fill-rule: nonzero; opacity: 1;"  paint-order="stroke"  transform=" translate(5.4455, -0.002000000000000668)" d="M 0 0 L -5.446 -5.446 L -10.891 0 L -5.446 5.45 Z" stroke-linecap="round" />
</g>
</g>
</g>
<g transform="matrix(1.9211538461538462 0 0 1.9211538461538462 789.5474501305008 399.8627097530867)" id="text-logo"  >
<g style=""  paint-order="stroke"   >
		<g transform="matrix(1 0 0 1 0 0)" id="text-logo-path-0"  >
<path style="stroke: none; stroke-width: 0; stroke-dasharray: none; stroke-linecap: butt; stroke-dashoffset: 0; stroke-linejoin: miter; stroke-miterlimit: 4; fill: rgb(0,0,0); fill-rule: nonzero; opacity: 1;"  paint-order="stroke"  transform=" translate(-132.04500000000002, 29.75)" d="M 51.85 -54.4 L 42.25 0 L 51.51 0 L 62.14 -10.03 L 70.89 -59.5 L 48.45 -59.5 Z M -1.7 0 L 38 0 L 39.78 -9.95 L 18.19 -9.95 L 19.89 -19.8 L 1.79 -19.8 Z M 91.63 -54.4 L 82.03 0 L 100.22 0 L 110.67 -59.5 L 88.23 -59.5 Z M 104.38 0 L 131.5 0 L 133.28 -9.86 L 106.17 -9.86 Z M 108.89 -25.76 L 131.75 -25.76 L 133.54 -35.62 L 110.67 -35.62 Z M 113.14 -49.64 L 140.25 -49.64 L 142.04 -59.5 L 114.92 -59.5 Z M 162.78 -54.4 L 153.17 0 L 171.36 0 L 180.03 -49.56 L 201.62 -49.56 L 199.16 -35.62 L 181.65 -35.62 L 179.86 -25.76 L 184.79 -25.76 L 197.28 0 L 215.47 0 L 202.9 -25.76 L 215.64 -25.76 L 219.98 -50.83 L 211.31 -59.5 L 159.38 -59.5 Z M 246.75 -54.4 L 237.15 0 L 255.25 0 L 265.79 -59.5 L 243.35 -59.5 Z" stroke-linecap="round" />
</g>
</g>
</g>
<g transform="matrix(1 0 0 1 325 409.55437781036096)" id="tagline-663dcb54-485f-4166-8372-8c733125078c-logo"  >
<g style=""  paint-order="stroke"   >
		<g transform="matrix(1 0 0 1 0 0)" id="tagline-663dcb54-485f-4166-8372-8c733125078c-logo-path-0"  >
<path style="stroke: none; stroke-width: 0; stroke-dasharray: none; stroke-linecap: butt; stroke-dashoffset: 0; stroke-linejoin: miter; stroke-miterlimit: 4; fill: rgb(0,0,0); fill-rule: nonzero; opacity: 1;"  paint-order="stroke"  transform=" translate(0, 0)" d="" stroke-linecap="round" />
</g>
</g>
</g>
<g transform="matrix(1.9211538461538462 0 0 1.9211538461538462 349.4748148031478 399.8627097530867)" id="tagline-70ffadea-5dd7-4476-aa5d-0a4990904677-logo"  >
<g style=""  paint-order="stroke"   >
		<g transform="matrix(1 0 0 1 0 0)" id="tagline-70ffadea-5dd7-4476-aa5d-0a4990904677-logo-path-0"  >
<path style="stroke: none; stroke-width: 0; stroke-dasharray: none; stroke-linecap: butt; stroke-dashoffset: 0; stroke-linejoin: miter; stroke-miterlimit: 4; fill: rgb(0,0,0); fill-rule: nonzero; opacity: 1;"  paint-order="stroke"  transform=" translate(-16.96, 29.75)" d="M 12.24 -54.4 L 2.64 0 L 20.74 0 L 31.28 -59.5 L 8.84 -59.5 Z" stroke-linecap="round" />
</g>
</g>
</g>
</svg>